<?xml version="1.0" encoding="utf-8"?>
<!-- Generator: Adobe Illustrator 22.1.0, SVG Export Plug-In . SVG Version: 6.00 Build 0)  -->
<!DOCTYPE svg PUBLIC "-//W3C//DTD SVG 1.1//EN" "http://www.w3.org/Graphics/SVG/1.1/DTD/svg11.dtd">
<svg version="1.1" id="Layer_1" xmlns="http://www.w3.org/2000/svg" xmlns:xlink="http://www.w3.org/1999/xlink" x="0px" y="0px"
	 viewBox="0 0 150 150" style="enable-background:new 0 0 150 150;" xml:space="preserve">
<path d="M113.4,100.5c-4.8-13.1-12.3-22-22.1-26.5c-0.7-0.3-0.8-1.3-0.1-1.7c8-5.4,13.3-14.6,13-25c-0.3-15-12.3-27.6-27.3-28.5
	c-17-1.1-31.1,12.4-31.1,29.2c0,10.1,5.2,19.1,13,24.3c0.6,0.4,0.6,1.4-0.1,1.7c-9.8,4.5-17.3,13.5-22.1,26.5
	c-5.3,14.6-5.4,29-5.4,29.6v0.2c0,0.5,0.4,1,1,1h85.7c0.6,0,1-0.5,1-1v-0.2C118.8,129.5,118.8,115.2,113.4,100.5z M115.5,129h-81
	c-0.6,0-1-0.5-1-1c0.2-4.6,1.2-15.7,5.2-26.6c5.2-14.2,13.4-23.1,24.5-26.6c1.2-0.4,2.5-0.7,3.8-1c-1.3-0.4-2.5-0.9-3.7-1.5
	c-9.7-4.7-16.2-15-15.2-26.7c1.1-12.7,11.2-23,23.8-24.4C88.2,19.3,102,32,102,47.9c0,10.7-6.3,20-15.3,24.3
	c-1.2,0.6-2.4,1.1-3.7,1.5c1.3,0.3,2.6,0.6,3.8,1c11.1,3.5,19.3,12.5,24.5,26.6c4,10.9,5,22,5.2,26.6
	C116.5,128.5,116.1,129,115.5,129z"/>
<g>
</g>
<g>
</g>
<g>
</g>
<g>
</g>
<g>
</g>
</svg>
