<?xml version="1.0" encoding="utf-8"?>
<!-- Generator: Adobe Illustrator 22.1.0, SVG Export Plug-In . SVG Version: 6.00 Build 0)  -->
<svg version="1.1" xmlns="http://www.w3.org/2000/svg" xmlns:xlink="http://www.w3.org/1999/xlink" x="0px" y="0px"
	 viewBox="0 0 553.3 200" style="enable-background:new 0 0 553.3 200;" xml:space="preserve">
<style type="text/css">
	.st0{display:none;}
	.st1{fill:#F04B4B;}
	.st2{fill:none;}
</style>
<g id="Layer_1">
	<g id="Warstwa_1" class="st0">
		
			<image style="display:inline;overflow:visible;enable-background:new    ;" width="570" height="795" xlink:href="../../../../../../../../Downloads/2017-Shield-Only-One-Color-Red-Higher-Res.png"  transform="matrix(0.2516 0 0 0.2516 35.8619 -3)">
		</image>
	</g>
	<g id="Layer_2_1_">
		<path class="st1" d="M138.6,15.2c-10.5-6.4-34.2-15-67-15s-56.5,8.6-67,15l-4.5,2.7v121.3L68,196.6l3.6,3.1l3.5-3l68-57.5V17.9
			L138.6,15.2z M95.3,139.4c-0.9-4.3-4.1-7.7-8.2-9l10.6-54.6c2.6-0.2,5-0.9,7.1-2.2l34.3,27v35.6L95.3,139.4z M22.9,105.1
			l61.4-35.5c2.1,2.8,5.2,4.9,8.8,5.8L82.4,130c-3.7,0.3-6.9,2.4-8.8,5.3l-50.1-21c0.3-1.2,0.5-2.4,0.5-3.7
			C23.9,108.7,23.6,106.8,22.9,105.1z M85.6,60.3c0-0.5,0-1.1,0.1-1.6c0.2-1.7,0.9-3.2,1.8-4.5c2-2.9,5.3-4.8,9.1-4.8
			c6,0,11,4.9,11,11c0,2.9-1.1,5.5-2.9,7.4c-1.1,1.2-2.4,2.1-3.9,2.7c-1.3,0.5-2.7,0.8-4.1,0.8c-3.9,0-7.3-2-9.2-5l-0.4-0.8
			C86.1,63.9,85.6,62.2,85.6,60.3z M83.5,134.4c4.1,0,7.4,3.3,7.4,7.4c0,4.1-3.3,7.4-7.4,7.4s-7.4-3.3-7.4-7.4
			S79.4,134.4,83.5,134.4z M139.1,20.3L139.1,20.3v74.5l-30.7-24.3c2.4-2.7,3.9-6.3,3.9-10.2c0-6.5-4.1-12.2-9.9-14.4l7.1-37.1
			C119.6,11.3,129.4,15,139.1,20.3z M71.7,4.9C83.4,4.9,94.4,5.8,105,8l0,0l-7.1,37c0,0,0,0-0.1,0c-5.7-0.4-10.7,2.3-13.7,6.5
			L31.2,9.7C44,6.2,57.3,4.9,71.7,4.9z M5,20c6.9-3.8,13.8-6.8,20.9-9.1l56.4,44.4c-0.5,1.5-0.7,3-0.7,4.7c0,1.9,0.3,3.7,1,5.3
			l-61.4,35.6c-2.8-3.5-7.1-5.8-11.9-5.8c-1.5,0-2.9,0.2-4.2,0.6V20H5z M4.1,100.8c2-0.9,4.1-1.1,6.5-0.7c3.1,0.6,5.8,2.5,7.2,5.4
			c3.8,8-1.9,15.8-9.5,15.8c-1.5,0-2.9-0.3-4.2-0.9L4.1,100.8z M69.8,192.7L4.1,137.1v-11.9c1.3,0.4,2.8,0.6,4.2,0.6
			c5.5,0,10.3-2.9,13-7.3l50.1,21c-0.2,0.8-0.2,1.6-0.2,2.4c0,4.5,2.5,8.5,6.2,10.5L69.8,192.7z M75.1,191l7.1-37.4
			c0.4,0,0.9,0.1,1.3,0.1c5.8,0,10.7-4.2,11.7-9.8l39.1-3L75.1,191z"/>
		<line class="st2" x1="104.9" y1="7.8" x2="104.9" y2="7.8"/>
	</g>
</g>
<g id="Layer_2">
	<rect x="143.4" y="99.9" class="st2" width="14.9" height="14.9"/>
	<rect x="158.3" y="17.7" class="st2" width="533.9" height="151.9"/>
	<g>
		<path d="M181.3,41.6c2.1,0,5.8-0.1,11.1-0.2c5.3-0.1,9.3-0.2,12-0.2c0,0.5,0.7,3.9,2.1,10.4c-0.2,0.2-0.8,0.4-1.6,0.4
			c-0.5,0-0.9-0.2-1-0.5c-0.9-1.8-2.3-3.3-4.3-4.6c-2-1.3-3.9-1.9-5.7-1.9H191c-2.9,0-4.4,0.3-4.5,0.9c-0.2,1.1-0.3,3-0.3,5.6v11
			c0,0.3,1,0.4,3,0.4h3.7c2.9,0,4.5-0.1,4.7-0.3c0.2-0.2,0.4-0.9,0.6-2.1c0.1-0.7,0.2-1.4,0.4-2.1c0-0.3,0.4-0.5,1-0.5
			c0.8,0,1.3,0.1,1.5,0.4V72c-0.2,0.2-0.7,0.3-1.5,0.3c-0.6,0-1-0.2-1.1-0.6c-0.2-0.7-0.3-1.2-0.5-1.7c-0.1-0.5-0.3-0.8-0.3-1.1
			c-0.1-0.2-0.2-0.5-0.3-0.6c-0.1-0.2-0.2-0.3-0.2-0.4c0,0-0.1-0.1-0.3-0.2c-0.1-0.1-0.2-0.1-0.3-0.2c-0.6-0.4-2.4-0.6-5.4-0.6
			c-3.3,0-5,0.2-5,0.6v10.3c0,2.2,0.2,3.9,0.6,5c0.2,0.7,1.9,1.1,4.9,1.1h1.9c3,0,5.6-0.6,8-1.8c0.8-0.4,1.7-1.2,2.8-2.4
			c1-1.2,1.8-2.5,2.4-3.9c0-0.3,0.4-0.4,1-0.4c1.1,0,1.9,0.1,2.1,0.4c-2.3,6.5-3.6,10.5-3.9,12.1c-2.4,0-6.3,0-11.6-0.1
			c-5.3-0.1-9.6-0.1-12.9-0.1L171,88.1c-0.2-0.2-0.3-0.6-0.3-1.2c0-0.9,0.1-1.4,0.3-1.4c0.6,0,1.5-0.2,2.7-0.5
			c1.2-0.3,1.9-0.7,2-1.1c0.3-1.1,0.4-3.1,0.4-6.2V51.2c0-2.6-0.1-4.4-0.4-5.5c-0.1-0.4-0.8-0.8-2.1-1.3c-1.3-0.5-2.2-0.7-2.7-0.7
			c-0.2,0-0.3-0.4-0.3-1.3c0-0.7,0.1-1.2,0.2-1.3C174.6,41.4,178.1,41.6,181.3,41.6z"/>
		<path d="M219.1,50.3c-0.6-2.2-0.7-3.9-0.9-5.1c-0.2-0.7-1.5-1.1-3.7-1.2h-0.6c-0.3,0.1-0.4-0.4-0.4-1.3c0-0.8,0.1-1.2,0.4-1.2
			c1.5-0.1,2.9-0.3,4.4-0.6c1.5-0.2,2.7-0.5,3.8-0.7c1-0.2,2-0.5,2.8-0.7c0.8-0.2,1.5-0.4,1.9-0.6l0.7,0h0.1
			c0.2-0.2,0.4-0.1,0.6,0.2c0.2,0.3,0.3,0.5,0.4,0.8c-0.5,2.1-0.8,4.5-0.4,7.1v30.1c-0.4,3-0.3,5.1,0.1,6.4c0.1,0.3,0.7,0.7,2,1.1
			c1.2,0.4,2,0.6,2.5,0.6c0.1,0,0.2,0.4,0.2,1.2c0,0.8,0,1.3-0.1,1.4c-0.5,0-2-0.2-4.4-0.3c-2.4-0.2-4.2-0.2-5.2-0.2
			c-1.1,0-2.9,0.1-5.3,0.2s-3.8,0.3-4.4,0.3c-0.2-0.2-0.3-0.7-0.3-1.4s0.1-1.2,0.3-1.2c0.5,0,1.4-0.2,2.6-0.6c1.2-0.4,1.9-0.8,2-1.1
			c0.3-1.4,0.5-3.2,1.1-5.3V50.3z"/>
		<path d="M251.9,56c4.2,0,7.6,1.5,10.2,4.4c2.6,2.9,3.8,5.9,3.8,9c0,1.1-0.2,1.8-0.7,2.1c-0.4,0.3-1.3,0.5-2.6,0.5h-15.9
			c-0.3,0-0.4,0.2-0.4,0.5c0,2.5,0.7,4.8,2.1,6.8c1.4,2,3.5,3,6.2,3c1.5,0,3-0.2,4.4-0.7c1.4-0.4,2.4-0.8,3-1.2s1.3-0.9,2.3-1.6
			c0.4,0.2,0.6,0.6,0.6,1.3c0,0.6-0.1,1-0.3,1.4c-0.5,1.1-1.9,2.5-4.2,4c-2.3,1.5-5,2.3-7.9,2.3c-4.3,0-8-1.6-11.1-4.7
			c-3.1-3.1-4.7-6.9-4.7-11.3c0-4.5,1.4-8.3,4.2-11.3C243.7,57.6,247.4,56,251.9,56z M251.6,59.8c-1.8,0-3.2,0.9-4,2.6
			s-1.3,3.5-1.3,5.2c0,0.3,0.2,0.4,0.5,0.4h8.9c0.7,0,1-0.4,1-1.3c0-1.8-0.5-3.4-1.4-4.8C254.3,60.5,253.1,59.8,251.6,59.8z"/>
		<path d="M295.6,60.5c-1-1-2.5-1.5-4.6-1.5c-0.1,0-0.2-0.4-0.2-1.1s0-1.2,0.1-1.5c0.7,0,2,0.2,3.8,0.3C296.6,57,298,57,299,57
			c1.1,0,2.6-0.1,4.3-0.2c1.8-0.2,3-0.3,3.8-0.3c0.2,0.2,0.3,0.6,0.3,1.2c0,0.9-0.1,1.4-0.3,1.4c-0.7,0-1.7,0.2-3,0.7
			s-2.1,1.2-2.6,2.1l-12.4,24.5c-0.7,1.4-1.4,2-2.1,2c-0.6,0-0.9-0.2-1.1-0.6l-11.7-26.3c-0.4-0.9-1.1-1.5-2.2-1.9
			c-1.1-0.4-2-0.6-2.7-0.6c-0.2,0-0.3-0.5-0.3-1.4c0-0.6,0.1-1,0.3-1.2c0.5,0,2,0.2,4.4,0.3c2.4,0.2,4.2,0.2,5.2,0.2
			c1.2,0,3-0.1,5.6-0.3c2.6-0.2,4-0.3,4.5-0.3c0.2,0.2,0.3,0.7,0.3,1.4s-0.1,1.2-0.3,1.2c-0.7,0-1.7,0.2-2.9,0.6
			c-1.2,0.4-1.9,0.8-1.9,1.3l0.1,1.1l5.6,13.2l5.6-11.7C296.2,62.2,296.2,61.2,295.6,60.5z"/>
		<path d="M326.4,56c4.2,0,7.6,1.5,10.2,4.4c2.6,2.9,3.8,5.9,3.8,9c0,1.1-0.2,1.8-0.7,2.1c-0.4,0.3-1.3,0.5-2.6,0.5h-15.9
			c-0.3,0-0.4,0.2-0.4,0.5c0,2.5,0.7,4.8,2.1,6.8c1.4,2,3.5,3,6.2,3c1.5,0,3-0.2,4.4-0.7c1.4-0.4,2.4-0.8,3-1.2s1.3-0.9,2.3-1.6
			c0.4,0.2,0.6,0.6,0.6,1.3c0,0.6-0.1,1-0.3,1.4c-0.5,1.1-1.9,2.5-4.2,4c-2.3,1.5-5,2.3-7.9,2.3c-4.3,0-8-1.6-11.1-4.7
			c-3.1-3.1-4.7-6.9-4.7-11.3c0-4.5,1.4-8.3,4.2-11.3C318.2,57.6,321.8,56,326.4,56z M326,59.8c-1.8,0-3.2,0.9-4,2.6
			s-1.3,3.5-1.3,5.2c0,0.3,0.2,0.4,0.5,0.4h8.9c0.7,0,1-0.4,1-1.3c0-1.8-0.5-3.4-1.4-4.8C328.8,60.5,327.5,59.8,326,59.8z"/>
		<path d="M368.9,56.3c2.7,0,4.9,1.1,6.6,3.4c1.7,2.3,2.6,5.8,2.6,10.4v7.1c0,3,0.2,5.1,0.5,6.3c0.1,0.3,0.7,0.7,1.9,1.1
			c1.2,0.4,2,0.6,2.4,0.6c0.1,0,0.2,0.4,0.2,1.1c0,0.8,0,1.2-0.1,1.4c-0.5,0-2-0.2-4.3-0.3c-2.4-0.2-4.1-0.2-5.2-0.2
			c-1.1,0-2.8,0.1-5,0.2c-2.2,0.2-3.6,0.3-4.2,0.3c-0.2-0.2-0.3-0.7-0.3-1.4s0.1-1.1,0.3-1.1c0.5,0,1.3-0.2,2.4-0.6
			c1.1-0.4,1.7-0.8,1.8-1.1c0.3-1.4,0.5-3.1,0.5-5.3v-6.3c0-3.5-0.5-6-1.5-7.5c-1-1.5-2.5-2.2-4.6-2.2c-1.5,0-2.7,0.3-3.5,0.8
			c-0.9,0.5-1.3,1.3-1.3,2.3v11.9c0,3,0.2,5.1,0.5,6.3c0.1,0.3,0.7,0.7,1.8,1.1c1.1,0.4,1.9,0.6,2.3,0.6c0.1,0,0.2,0.4,0.2,1.1
			c0,0.8,0,1.2-0.1,1.4c-0.6,0-2-0.2-4.2-0.3c-2.3-0.2-3.9-0.2-5-0.2c-1.1,0-2.8,0.1-5.2,0.2c-2.4,0.2-3.8,0.3-4.3,0.3
			c-0.2-0.2-0.3-0.7-0.3-1.4s0.1-1.1,0.3-1.1c0.5,0,1.4-0.2,2.6-0.6c1.2-0.4,1.8-0.8,1.9-1.1c0.3-1.4,0.5-3.1,0.5-5.3v-9.7
			c0-2.6-0.4-4.4-1.3-5.2c-0.3-0.4-0.8-0.7-1.5-0.9c-0.7-0.2-1.2-0.4-1.7-0.5c-0.5-0.1-0.7-0.2-0.7-0.2c0-1.6,0.1-2.4,0.3-2.4
			c0.6,0,1.5-0.1,2.8-0.4c1.3-0.3,3-0.6,5.1-1.1c2.1-0.5,3.7-0.8,4.9-1c0.1,0,0.2,0,0.3-0.1c0.1,0,0.2-0.1,0.3-0.1l0.1-0.1
			c0.2,0,0.5,0.2,0.7,0.5c0.2,0.3,0.3,0.5,0.3,0.7c-0.2,1.3-0.3,2-0.3,2.2c0,0.2,0,0.4,0.1,0.4c0.1,0,0.3-0.1,0.5-0.3
			C361.8,57.5,365.1,56.3,368.9,56.3z"/>
		<path d="M412.3,41.6c3.1,0,7.1-0.1,12-0.2c4.9-0.1,8.6-0.2,11.1-0.2c0,0.5,0.7,3.9,2.1,10.4c-0.2,0.2-0.8,0.4-1.6,0.4
			c-0.5,0-0.9-0.2-1-0.5c-0.9-1.8-2.3-3.3-4.3-4.6c-2-1.3-3.9-1.9-5.7-1.9H422c-2.9,0-4.4,0.3-4.5,0.9c-0.2,1.1-0.3,3-0.3,5.6v11
			c0,0.3,1,0.4,3,0.4h3.7c2.9,0,4.5-0.1,4.7-0.3c0.2-0.2,0.4-0.9,0.6-2.1c0.1-0.7,0.2-1.4,0.4-2.1c0-0.3,0.4-0.5,1-0.5
			c0.8,0,1.3,0.1,1.5,0.4V72c-0.2,0.2-0.7,0.3-1.5,0.3c-0.6,0-1-0.2-1.1-0.6c-0.2-0.7-0.3-1.2-0.5-1.7c-0.1-0.5-0.3-0.8-0.3-1.1
			c-0.1-0.2-0.2-0.5-0.3-0.6c-0.1-0.2-0.2-0.3-0.2-0.4c0,0-0.1-0.1-0.3-0.2c-0.1-0.1-0.2-0.1-0.3-0.2c-0.6-0.4-2.4-0.6-5.4-0.6
			c-3.3,0-5,0.2-5,0.6V78c0,2.4,0.2,4.3,0.5,5.8c0.1,0.6,0.9,1,2.4,1.3c1.4,0.3,2.5,0.5,3.2,0.5c0.2,0,0.3,0.4,0.3,1.3
			c0,0.6,0,1-0.1,1.3c-5.7-0.3-9.4-0.4-10.9-0.4L402,88.2c-0.2-0.2-0.3-0.6-0.3-1.2c0-0.9,0.1-1.4,0.3-1.4c0.6,0,1.5-0.2,2.7-0.5
			c1.2-0.3,1.9-0.7,2-1.1c0.3-1.1,0.4-3.1,0.4-6.2V51.3c0-2.6-0.1-4.4-0.4-5.5c-0.1-0.4-0.8-0.8-2.1-1.3c-1.3-0.5-2.2-0.7-2.7-0.7
			c-0.2,0-0.3-0.4-0.3-1.3c0-0.7,0.1-1.2,0.2-1.3C406.1,41.4,409.6,41.6,412.3,41.6z"/>
		<path d="M455.1,77.1c0,3,0.2,5.1,0.5,6.3c0.1,0.3,0.8,0.7,2,1.1c1.2,0.4,2,0.6,2.4,0.6c0.2,0,0.3,0.4,0.3,1.1c0,0.8,0,1.2-0.1,1.4
			c-0.5,0-1.9-0.2-4.3-0.3c-2.4-0.2-4.1-0.2-5.2-0.2c-1.1,0-2.8,0.1-5.2,0.2c-2.3,0.2-3.8,0.3-4.3,0.3c-0.1-0.2-0.2-0.7-0.2-1.4
			c0-0.8,0.1-1.1,0.2-1.1c0.6,0,1.4-0.2,2.6-0.6c1.2-0.4,1.8-0.8,1.9-1.1c0.3-1.4,0.5-3.1,0.5-5.3v-9.5c0-2.6-0.4-4.3-1.2-5.2
			c-0.3-0.4-0.8-0.7-1.4-0.9c-0.6-0.2-1.2-0.4-1.7-0.5c-0.5-0.1-0.7-0.2-0.7-0.2c0-1.6,0.1-2.4,0.3-2.4c0.9,0,2.9-0.3,6.1-0.9
			s5.3-1.1,6.6-1.6c0,0,0.3-0.1,0.8-0.2c0.3,0,0.5,0.2,0.7,0.5c0.2,0.3,0.3,0.5,0.3,0.7c0,0.4-0.1,1.1-0.3,2.1
			c-0.1,1-0.3,1.9-0.3,2.7c-0.1,0.8-0.1,1.5-0.1,2.2V77.1z M446.6,48c-1-1-1.5-2.2-1.5-3.7c0-1.5,0.5-2.7,1.5-3.7
			c1-1,2.3-1.5,3.7-1.5c1.4,0,2.6,0.5,3.7,1.5c1,1,1.5,2.2,1.5,3.7c0,1.5-0.5,2.7-1.5,3.7c-1,1-2.2,1.5-3.7,1.5
			C448.8,49.5,447.6,49,446.6,48z"/>
		<path d="M485.6,38.7c2.1,0,3.9,0.2,5.4,0.7c1.5,0.5,2.5,1,2.8,1.7c0.1,0.9,0.2,1.8,0.2,2.8c0,1-0.3,1.9-0.9,2.7
			c-0.6,0.8-1.5,1.2-2.6,1.2c-1,0-1.8-0.4-2.6-1.2c-0.7-0.8-1.4-1.6-2.1-2.4c-0.7-0.8-1.5-1.2-2.4-1.2c-1.5,0-2.6,1.1-3.3,3.2
			c-0.7,2.2-1.1,7.9-1.1,7.9v3.4c0,0.2,0.2,0.4,0.4,0.4h7.5c0.2,0,0.3,0.2,0.3,0.5c0,1.3-0.3,2.4-0.8,3.5h-6.9c0,0-0.4-0.3-0.5,0
			v15.1c0.1,3,0.2,5.1,0.6,6.4c0.1,0.3,0.7,0.7,2,1.1c1.2,0.4,2,0.6,2.5,0.6c0.1,0,0.2,0.4,0.2,1.2c0,0.8,0,1.3-0.1,1.4
			c-0.5,0-2-0.2-4.4-0.3c-2.4-0.2-4.2-0.2-5.2-0.2c-1.1,0-2.9,0.1-5.3,0.2s-3.8,0.3-4.4,0.3c-0.2-0.2-0.3-0.7-0.3-1.4
			s0.1-1.2,0.3-1.2c0.5,0,1.4-0.2,2.6-0.6c1.2-0.4,1.9-0.8,2-1.1c0.3-1.4,0.5-3.2,0.6-5.3V62.1c-0.1-0.3-0.2-0.5-0.4-0.1H465
			c-0.1-0.4-0.2-0.5-0.2-0.8c0-0.6,0.3-1.4,0.9-2.4c0.6-1,1.3-1.4,2.1-1.8h2c0.2,0.4,0.4,0.2,0.4,0v-0.5c-0.1-4.9,1.4-9,4.4-12.5
			C477.5,40.5,481.2,38.7,485.6,38.7z"/>
		<path d="M496.1,62h-4.5c-0.4,0-0.6-0.7-0.6-2.1c0-0.4,0-0.6,0.1-0.7c2.6-1.3,4.7-2.5,6.2-3.7c0.7-0.5,1.5-1.1,2.4-1.9
			c0.9-0.8,1.7-1.5,2.4-2c0.7-0.6,1-0.9,1.1-0.9c0.4,0,0.8,0.1,1.2,0.2c0.4,0.2,0.6,0.3,0.6,0.5V58h7.5c0.4,0,0.6,0.2,0.6,0.7
			c0,1.3-0.2,2.4-0.7,3.3h-7.3v16.1c0,3.4,1.2,5.2,3.7,5.2c0.7,0,1.3-0.1,1.9-0.2c0.6-0.2,1-0.3,1.3-0.5c0.3-0.2,0.5-0.3,0.6-0.3
			c0.2,0,0.4,0.2,0.6,0.7c0.2,0.5,0.3,0.8,0.3,1c0,0.5-0.9,1.3-2.8,2.2c-1.9,0.9-3.7,1.4-5.3,1.4c-2.5,0-4.7-0.8-6.5-2.3
			c-1.8-1.6-2.7-4.1-2.7-7.6V62z"/>
		<path d="M525.4,57c1,0,2.7-0.1,5-0.2c2.3-0.2,3.7-0.3,4.2-0.3c0.1,0.4,0.2,0.9,0.2,1.5c0,0.8-0.1,1.1-0.3,1.1
			c-0.6,0-1.5,0.2-2.6,0.6c-1.1,0.4-1.7,0.8-1.7,1.3l0.1,0.6c0.1,0.8,1.9,5.3,5.5,13.7c3.2-6.9,4.9-10.7,5.2-11.4
			c0.3-0.7,0.4-1.4,0.4-2.1c0-0.3-0.1-0.6-0.4-1c-0.3-0.4-0.8-0.7-1.6-1.1c-0.8-0.4-1.8-0.6-3-0.6c-0.2,0-0.3-0.4-0.3-1.3
			c0-0.6,0-1.1,0.1-1.3c0.6,0,2,0.2,4.2,0.3c2.2,0.2,3.9,0.2,5,0.2c1,0,2.3-0.1,3.9-0.2c1.6-0.2,2.8-0.3,3.6-0.3
			c0.2,0.4,0.3,0.8,0.3,1.2c0,0.9-0.1,1.4-0.3,1.4c-0.7,0-1.7,0.2-3.1,0.7c-1.4,0.5-2.3,1.2-2.8,2.1L534,90.2
			c-3.9,8.5-8.4,12.7-13.6,12.7c-1.4,0-2.5-0.4-3.4-1.1c-0.9-0.8-1.3-1.6-1.3-2.6c0-1.5,0.5-2.6,1.6-3.3c6,0,9.8-1.8,11.6-5.5
			c1.1-2.3,1.8-3.8,2.2-4.6l-10.5-23.2l-0.4-0.8c-0.5-1-1.2-1.7-2.1-2.1c-1-0.4-1.8-0.6-2.5-0.6c-0.2,0-0.3-0.4-0.3-1.1
			c0-0.9,0-1.5,0.1-1.5c0.4,0,1.9,0.1,4.4,0.3C522.5,56.9,524.3,57,525.4,57z"/>
		<path d="M239,145.3c1,0,2.1-0.2,3.2-0.7c1.1-0.4,1.6-1,1.6-1.8c0-0.1-0.6-1.7-1.8-4.7l-2.1-5.1c-0.2-0.2-0.4-0.3-0.5-0.3
			c-0.9,0-3.1-0.1-6.8-0.1c-3.1,0-5.5,0-7.1,0.1c-0.2,0-0.4,0.1-0.5,0.4l-2.3,5.3c-0.9,2.1-1.4,3.5-1.4,4.3c0,0.8,0.4,1.3,1.3,1.8
			s1.6,0.7,2.2,0.7s1.2,0.1,1.7,0.1c0.1,0,0.2,0.4,0.2,1.1s0,1.2-0.1,1.5c-0.6,0-1.8-0.2-3.7-0.3c-1.9-0.2-3.4-0.2-4.5-0.2
			c-1.2,0-2.6,0.1-4.2,0.2c-1.6,0.2-2.9,0.3-3.8,0.3c-0.2-0.2-0.3-0.5-0.3-1.1c0-1,0-1.5,0.1-1.5c0.6,0,1.5-0.2,2.8-0.7
			c1.3-0.5,2.1-1,2.5-1.5c0.4-0.6,0.8-1.3,1.2-2.1c0.4-0.8,0.7-1.5,0.9-2l0.4-0.8l15.5-35.7c0.5-1.2,1.4-1.8,2.6-1.8
			c0.7,0,1.3,0.3,1.7,0.9l14.4,35.6c0.9,2.2,1.7,4.1,2.3,5.8c0.3,0.8,1.1,1.3,2.3,1.7c1.3,0.4,2.2,0.6,2.9,0.6
			c0.2,0,0.3,0.4,0.3,1.2c0,0.8,0,1.3-0.1,1.4c-0.2,0-1.6-0.1-4.3-0.3c-2.7-0.2-4.7-0.3-5.9-0.3c-0.3,0-3.9,0.2-10.6,0.6
			c-0.2-0.2-0.3-0.7-0.3-1.4S238.8,145.3,239,145.3z M227.5,128.2c1.4,0.1,3.1,0.2,5.2,0.2c1.9,0,3.5,0,5-0.1l0.2-0.4l-5.1-12.6
			l-5.5,12.6C227.3,128.1,227.4,128.2,227.5,128.2z"/>
		<path d="M278.5,116.2c2,0,3.9,0.3,5.7,0.9c1.8,0.6,3,1.2,3.7,1.7c0.7,0.5,1.2,1,1.6,1.5c0,4.3-1.3,6.5-3.8,6.5
			c-1.8,0-3.2-1.2-4.1-3.5c-0.4-1.1-0.9-1.9-1.6-2.4c-0.6-0.5-1.5-0.8-2.6-0.8c-3.8,0-5.6,3.5-5.6,10.5c0,7.9,2.6,11.9,7.9,11.9
			c1.5,0,3-0.2,4.4-0.7c1.4-0.4,2.4-0.8,3-1.2s1.3-0.9,2.3-1.6c0.4,0.2,0.6,0.6,0.6,1.3c0,0.6-0.1,1-0.3,1.4c-0.5,1.2-1.9,2.5-4.2,4
			c-2.3,1.5-4.9,2.3-7.8,2.3c-4.5,0-8.3-1.6-11.3-4.7c-3-3.2-4.6-7-4.6-11.6c0-4.3,1.6-8,4.9-11
			C269.8,117.7,273.8,116.2,278.5,116.2z"/>
		<path d="M310.1,116.3c3.2,0,5.7,0.9,7.4,2.7c1.7,1.8,2.6,5,2.6,9.7v11.2c0,1.6,0.6,2.4,1.7,2.4c0.8,0,1.6-0.3,2.4-0.9
			c0.3,0.2,0.5,0.5,0.5,1c0,1.2-0.2,2-0.5,2.6c-0.6,0.6-1.7,1.2-3.1,1.9c-1.5,0.7-2.8,1-4.1,1c-1.1,0-2.2-0.3-3.2-1
			c-1-0.7-1.7-1.4-2-2.3c0,0-0.2,0.1-0.6,0.4c-0.3,0.3-0.7,0.5-1.2,0.9c-0.5,0.3-1.1,0.6-1.8,1c-0.7,0.3-1.5,0.6-2.4,0.8
			c-0.9,0.2-1.8,0.3-2.8,0.3c-2.5,0-4.6-0.7-6.1-2.1c-1.5-1.4-2.3-3.2-2.3-5.3c0-1.2,0.3-2.4,0.9-3.4c0.6-1,1.2-1.9,2-2.6
			c0.8-0.7,1.8-1.3,3.1-1.9c1.3-0.6,2.4-1,3.3-1.3c0.9-0.3,2.1-0.6,3.6-1c1.5-0.4,2.5-0.7,3-0.9c0.4-0.1,0.6-0.5,0.6-1v-2.5
			c0-3.8-1.2-5.7-3.5-5.7c-2.7,0-4,1.5-4,4.6c0,1-0.4,1.8-1.2,2.3c-0.8,0.5-1.8,0.7-2.8,0.7c-2.1,0-3.6-0.7-4.4-2.1
			c0-2.4,1.6-4.5,4.7-6.5C303,117.3,306.4,116.3,310.1,116.3z M307.2,143c1.2,0,2.2-0.3,2.8-0.9c0.7-0.6,1-1.3,1-2.1v-7.1
			c-0.1,0-0.6,0.2-1.4,0.5c-0.8,0.3-1.3,0.4-1.6,0.5c-0.2,0.1-0.7,0.3-1.3,0.5c-0.7,0.3-1.1,0.5-1.4,0.7c-0.3,0.2-0.6,0.5-0.9,0.8
			c-0.4,0.3-0.6,0.7-0.8,1.1c-0.1,0.4-0.2,0.8-0.2,1.3c0,1.7,0.4,2.9,1.1,3.7C305.3,142.7,306.2,143,307.2,143z"/>
		<path d="M344.7,116.2c1.9,0,3.6,0.2,4.9,0.6c0.1,0,0.2-0.3,0.5-1v-5.6c-0.3-2-0.4-3.7-0.7-5.1c-0.2-0.7-1.5-1.1-3.7-1.2h-0.6
			c-0.3,0.1-0.4-0.4-0.4-1.3c0-0.8,0.1-1.2,0.4-1.2c1.5-0.1,2.9-0.3,4.4-0.6c1.5-0.2,2.7-0.5,3.8-0.7c1-0.2,2-0.5,2.8-0.7
			c0.8-0.2,1.5-0.4,1.9-0.6l0.7,0h0.1c0.2-0.2,0.4-0.1,0.6,0.2c0.2,0.3,0.3,0.5,0.4,0.8c-0.5,2.1-0.8,4.5-0.6,7.1v30.2
			c-0.2,2,0,3.7,0.3,5.1c0.1,0.3,0.4,0.6,0.8,0.8c0.4,0.2,0.9,0.3,1.3,0.4c0.5,0,0.9,0.1,1.3,0.1l0.7,0.1c0.1,0,0.2,0.3,0.2,0.8
			c0,1.2-0.1,1.8-0.4,1.8c-0.7,0-1.6,0.1-2.8,0.3c-1.1,0.1-2.3,0.3-3.4,0.5c-1.1,0.2-2.2,0.3-3.3,0.5c-1,0.2-1.9,0.3-2.5,0.5
			l-1.1,0.1c-0.3,0-0.4-0.4-0.1-1.2v-1.5c-0.3-0.2-0.3-0.3-0.4-0.4c0,0-0.1,0-0.2,0.1c-2,2-4.3,3-7.1,3c-3.8,0-7.2-1.4-10.2-4.3
			c-3-2.8-4.5-6.5-4.5-11.1c0-4.7,1.6-8.6,4.8-11.8C335.8,117.8,339.8,116.2,344.7,116.2z M344.5,120c-2.2,0-3.8,0.9-4.8,2.6
			c-1,1.8-1.5,4.6-1.5,8.4c0,8.5,2.1,12.7,6.3,12.7c1.6,0,2.9-0.5,4-1.4s1.6-2,1.6-3.3v-12.8c0-0.6,0-1.1-0.1-1.6
			c-0.1-0.5-0.3-1.2-0.6-2c-0.3-0.8-0.9-1.4-1.7-1.9C346.8,120.2,345.8,120,344.5,120z"/>
		<path d="M382.6,116c4.2,0,7.6,1.5,10.2,4.4c2.6,2.9,3.8,5.9,3.8,9c0,1.1-0.2,1.8-0.7,2.1c-0.4,0.3-1.3,0.5-2.6,0.5h-15.9
			c-0.3,0-0.4,0.2-0.4,0.5c0,2.5,0.7,4.8,2.1,6.8c1.4,2,3.5,3,6.2,3c1.5,0,3-0.2,4.4-0.7c1.4-0.4,2.4-0.8,3-1.2s1.3-0.9,2.3-1.6
			c0.4,0.2,0.6,0.6,0.6,1.3c0,0.6-0.1,1-0.3,1.4c-0.5,1.1-1.9,2.5-4.2,4c-2.3,1.5-5,2.3-7.9,2.3c-4.3,0-8-1.6-11.1-4.7
			c-3.1-3.1-4.7-6.9-4.7-11.3c0-4.5,1.4-8.3,4.2-11.3C374.3,117.6,378,116,382.6,116z M382.2,119.8c-1.8,0-3.2,0.9-4,2.6
			s-1.3,3.5-1.3,5.2c0,0.3,0.2,0.4,0.5,0.4h8.9c0.7,0,1-0.4,1-1.3c0-1.8-0.5-3.4-1.4-4.8C384.9,120.5,383.7,119.8,382.2,119.8z"/>
		<path d="M425,116.3c3.4,0,5.8,1.6,7.4,4.8c2.9-3.2,7.1-4.8,12.6-4.8c2.7,0,4.9,1.1,6.6,3.4c1.7,2.3,2.6,5.8,2.6,10.4v7.1
			c0,3,0.2,5.1,0.5,6.3c0.1,0.3,0.7,0.7,1.9,1.1c1.2,0.4,1.9,0.6,2.4,0.6c0.1,0,0.2,0.4,0.2,1.1c0,0.8,0,1.2-0.1,1.4
			c-0.5,0-1.9-0.2-4.3-0.3c-2.3-0.2-4-0.2-5.1-0.2c-1.1,0-2.8,0.1-5.1,0.2c-2.3,0.2-3.7,0.3-4.3,0.3c-0.2-0.2-0.3-0.7-0.3-1.4
			s0.1-1.1,0.3-1.1c0.5,0,1.3-0.2,2.5-0.6c1.2-0.4,1.8-0.8,1.9-1.1c0.3-1.4,0.5-3.1,0.5-5.3v-6.4c0-3.2-0.5-5.7-1.4-7.3
			c-1-1.6-2.5-2.4-4.6-2.4c-2.6,0-4.3,0.9-4.9,2.7c-0.1,0.4-0.2,0.9-0.1,1.5c0.1,0.8,0.1,2.1,0.1,3.8v7c0,3,0.2,5.1,0.5,6.3
			c0.1,0.3,0.7,0.7,1.9,1.1c1.2,0.4,1.9,0.6,2.4,0.6c0.1,0,0.2,0.4,0.2,1.1c0,0.8,0,1.2-0.1,1.4c-0.5,0-1.9-0.2-4.3-0.3
			c-2.3-0.2-4-0.2-5.1-0.2c-1.1,0-2.8,0.1-5.1,0.2c-2.3,0.2-3.7,0.3-4.3,0.3c-0.2-0.2-0.3-0.7-0.3-1.4c0-0.8,0.1-1.1,0.3-1.1
			c0.5,0,1.3-0.2,2.5-0.6c1.2-0.4,1.8-0.8,1.9-1.1c0.3-1.4,0.5-3.1,0.5-5.3v-6.3c0-3.5-0.5-6-1.5-7.5c-1-1.5-2.5-2.2-4.6-2.2
			c-1.5,0-2.7,0.3-3.5,0.8c-0.9,0.5-1.3,1.3-1.3,2.3v11.9c0,3,0.2,5.1,0.5,6.3c0.1,0.3,0.7,0.7,1.8,1.1c1.1,0.4,1.9,0.6,2.3,0.6
			c0.1,0,0.2,0.4,0.2,1.1c0,0.8,0,1.2-0.1,1.4c-0.6,0-2-0.2-4.2-0.3c-2.3-0.2-3.9-0.2-5-0.2c-1.1,0-2.8,0.1-5.2,0.2
			c-2.4,0.2-3.8,0.3-4.3,0.3c-0.2-0.2-0.3-0.7-0.3-1.4s0.1-1.1,0.3-1.1c0.5,0,1.4-0.2,2.6-0.6c1.2-0.4,1.8-0.8,1.9-1.1
			c0.3-1.4,0.5-3.1,0.5-5.3v-9.7c0-2.6-0.4-4.4-1.3-5.2c-0.3-0.4-0.8-0.7-1.5-0.9c-0.7-0.2-1.2-0.4-1.7-0.5
			c-0.5-0.1-0.7-0.2-0.7-0.2c0-1.6,0.1-2.4,0.3-2.4c0.6,0,1.5-0.1,2.8-0.4c1.3-0.3,3-0.6,5.1-1.1c2.1-0.5,3.7-0.8,4.9-1
			c0.1,0,0.2,0,0.3-0.1c0.1,0,0.2-0.1,0.3-0.1l0.1-0.1c0.2,0,0.5,0.2,0.7,0.5c0.2,0.3,0.3,0.5,0.3,0.7c-0.2,1.3-0.3,2-0.3,2.2
			c0,0.2,0,0.4,0.1,0.4c0.1,0,0.3-0.1,0.5-0.3C417.8,117.5,421.1,116.3,425,116.3z"/>
		<path d="M470.8,117c1,0,2.7-0.1,5-0.2c2.3-0.2,3.7-0.3,4.2-0.3c0.1,0.4,0.2,0.9,0.2,1.5c0,0.8-0.1,1.1-0.3,1.1
			c-0.6,0-1.5,0.2-2.6,0.6c-1.1,0.4-1.7,0.8-1.7,1.3l0.1,0.6c0.1,0.8,1.9,5.3,5.5,13.7c3.2-6.9,4.9-10.7,5.2-11.4
			c0.3-0.7,0.4-1.4,0.4-2.1c0-0.3-0.1-0.6-0.4-1c-0.3-0.4-0.8-0.7-1.6-1.1c-0.8-0.4-1.8-0.6-3-0.6c-0.2,0-0.3-0.4-0.3-1.3
			c0-0.6,0-1.1,0.1-1.3c0.6,0,2,0.2,4.2,0.3c2.2,0.2,3.9,0.2,5,0.2c1,0,2.3-0.1,3.9-0.2c1.6-0.2,2.8-0.3,3.6-0.3
			c0.2,0.4,0.3,0.8,0.3,1.2c0,0.9-0.1,1.4-0.3,1.4c-0.7,0-1.7,0.2-3.1,0.7c-1.4,0.5-2.3,1.2-2.8,2.1l-13.1,28.3
			c-3.9,8.5-8.4,12.7-13.6,12.7c-1.4,0-2.5-0.4-3.4-1.1c-0.9-0.8-1.3-1.6-1.3-2.6c0-1.5,0.5-2.6,1.6-3.3c6,0,9.8-1.8,11.6-5.5
			c1.1-2.3,1.8-3.8,2.2-4.6L466,122.6l-0.4-0.8c-0.5-1-1.2-1.7-2.1-2.1c-1-0.4-1.8-0.6-2.5-0.6c-0.2,0-0.3-0.4-0.3-1.1
			c0-0.9,0-1.5,0.1-1.5c0.4,0,1.9,0.1,4.4,0.3C467.8,116.9,469.7,117,470.8,117z"/>
	</g>
</g>
</svg>
